<?xml version="1.0" encoding="UTF-8" standalone="no"?>
<!-- Created with Inkscape (http://www.inkscape.org/) -->

<svg
   xmlns:dc="http://purl.org/dc/elements/1.1/"
   xmlns:cc="http://creativecommons.org/ns#"
   xmlns:rdf="http://www.w3.org/1999/02/22-rdf-syntax-ns#"
   xmlns:svg="http://www.w3.org/2000/svg"
   xmlns="http://www.w3.org/2000/svg"
   xmlns:xlink="http://www.w3.org/1999/xlink"
   xmlns:sodipodi="http://sodipodi.sourceforge.net/DTD/sodipodi-0.dtd"
   xmlns:inkscape="http://www.inkscape.org/namespaces/inkscape"
   id="svg3119"
   version="1.1"
   inkscape:version="0.48.2 r9819"
   width="607"
   height="567"
   sodipodi:docname="nessie.svg">
  <metadata
     id="metadata3125">
    <rdf:RDF>
      <cc:Work
         rdf:about="">
        <dc:format>image/svg+xml</dc:format>
        <dc:type
           rdf:resource="http://purl.org/dc/dcmitype/StillImage" />
        <dc:title></dc:title>
      </cc:Work>
    </rdf:RDF>
  </metadata>
  <defs
     id="defs3123" />
  <sodipodi:namedview
     pagecolor="#ffffff"
     bordercolor="#666666"
     borderopacity="1"
     objecttolerance="10"
     gridtolerance="10"
     guidetolerance="10"
     inkscape:pageopacity="0"
     inkscape:pageshadow="2"
     inkscape:window-width="1414"
     inkscape:window-height="930"
     id="namedview3121"
     showgrid="false"
     inkscape:zoom="2.1699573"
     inkscape:cx="353.91174"
     inkscape:cy="453.06684"
     inkscape:window-x="0"
     inkscape:window-y="0"
     inkscape:window-maximized="0"
     inkscape:current-layer="layer2" />
  <g
     inkscape:groupmode="layer"
     id="layer1"
     inkscape:label="fondo"
     style="display:none"
     sodipodi:insensitive="true">
    <image
       width="607"
       height="567"
       xlink:href="file:///Users/dani/Pasatiempos/python/noch_less/project/nessie_simpsons_b.jpg"
       id="image3127"
       x="1.5068944"
       y="1.955165" />
  </g>
  <g
     inkscape:groupmode="layer"
     id="layer2"
     inkscape:label="cara"
     style="display:inline;opacity:1">
    <path
       style="fill:#9f247f;fill-opacity:1;stroke:#2d114c;stroke-width:2.5999999;stroke-linecap:butt;stroke-linejoin:miter;stroke-miterlimit:4;stroke-opacity:1;stroke-dasharray:none"
       d="m 222.3546,71.368131 c 23.76247,-24.166507 34.53791,-31.969548 43.08841,-36.175827 -7.09078,-7.196583 -14.52677,-5.083574 -18.43354,-13.364318 -1.78258,-3.778322 9.7455,-15.2433227 19.34124,-9.556611 5.04937,2.992399 13.2138,8.312109 16.08981,13.808782 11.2081,-5.185976 16.58844,-4.90866 26.5122,-2.655611 2.75629,-5.948917 7.41063,-11.255806 11.79092,-13.117524 3.612,-1.5351779 7.23689,-1.3680245 12.36217,4.949218 1.87306,2.308664 -1.26792,7.758589 -8.91746,13.647256 5.0979,2.942051 7.59645,5.676933 10.38044,11.358032 12.81755,-2.2613 13.48725,9.25362 8.2951,11.060126 l -7.83426,9.67761 c 9.52537,2.866984 20.59545,5.219062 26.72864,9.216771 12.43604,-6.704201 12.19754,4.735479 9.44719,8.755933 17.81381,26.858982 -28.29056,37.856822 -40.78421,29.032832 l -28.05524,-7.86701 c -6.78762,8.21805 -15.5239,6.29464 -20.33281,5.10198 -12.89528,10.2091 -18.76855,23.97296 -20.50732,32.48912 -16.39551,-8.11596 -38.59291,-34.66192 -39.17128,-66.360759 z"
       id="path3917"
       inkscape:connector-curvature="0"
       sodipodi:nodetypes="ccssccssccccccccccc"
       inkscape:export-filename="/Users/dani/Pasatiempos/python/noch_less/project/path3768.png"
       inkscape:export-xdpi="73"
       inkscape:export-ydpi="73" />
    <path
       style="fill:none;stroke:#2d114c;stroke-width:2.59999989999999981;stroke-linecap:butt;stroke-linejoin:miter;stroke-miterlimit:4;stroke-opacity:1;stroke-dasharray:none"
       d="m 259.22169,78.511129 c -4.85682,1.44986 -9.0811,2.678104 -14.51642,8.755932 -4.1612,-8.042822 2.86974,-13.531064 10.82971,-19.1248 -2.95933,-16.512554 3.78026,-25.10889 10.6552,-33.031422"
       id="path3938"
       inkscape:connector-curvature="0"
       sodipodi:nodetypes="cccc"
       inkscape:export-filename="/Users/dani/Pasatiempos/python/noch_less/project/path3768.png"
       inkscape:export-xdpi="73"
       inkscape:export-ydpi="73" />
    <path
       style="fill:none;stroke:#2d114c;stroke-width:2.59999989999999981;stroke-linecap:butt;stroke-linejoin:miter;stroke-miterlimit:4;stroke-opacity:1;stroke-dasharray:none"
       d="m 321.89573,78.741548 c 1.47654,-8.756691 10.81693,-6.709338 14.286,0.576048"
       id="path3942"
       inkscape:connector-curvature="0"
       sodipodi:nodetypes="cc"
       inkscape:export-filename="/Users/dani/Pasatiempos/python/noch_less/project/path3768.png"
       inkscape:export-xdpi="73"
       inkscape:export-ydpi="73" />
    <path
       style="fill:#2d114c;fill-opacity:1;stroke:#2d114c;stroke-width:0.67945599999999995;stroke-linecap:butt;stroke-linejoin:round;stroke-miterlimit:4;stroke-opacity:1;stroke-dasharray:none;display:inline"
       d="m 327.99746,79.417166 c 0.38577,-2.287863 2.82615,-1.75295 3.7325,0.150504"
       id="path3942-7"
       inkscape:connector-curvature="0"
       sodipodi:nodetypes="cc"
       inkscape:export-filename="/Users/dani/Pasatiempos/python/noch_less/project/path3768.png"
       inkscape:export-xdpi="73"
       inkscape:export-ydpi="73" />
    <path
       style="fill:#2d114c;fill-opacity:1;stroke:#2d114c;stroke-width:0.67945599999999995;stroke-linecap:butt;stroke-linejoin:round;stroke-miterlimit:4;stroke-opacity:1;stroke-dasharray:none;display:inline"
       d="m 364.33622,73.551358 c 1.63629,-1.644905 3.31956,0.201219 2.96012,2.278575"
       id="path3942-7-2"
       inkscape:connector-curvature="0"
       sodipodi:nodetypes="cc"
       inkscape:export-filename="/Users/dani/Pasatiempos/python/noch_less/project/path3768.png"
       inkscape:export-xdpi="73"
       inkscape:export-ydpi="73" />
  </g>
  <g
     inkscape:groupmode="layer"
     id="layer4"
     inkscape:label="boca"
     style="display:inline">
    <path
       style="fill:#ffffff;fill-opacity:1;stroke:#000000;stroke-width:1px;stroke-linecap:butt;stroke-linejoin:miter;stroke-opacity:1"
       d="m 282.29735,94.705573 c 1.24067,5.118229 6.49152,8.081637 10.26764,1.680424 -0.76225,8.142473 9.09525,9.335713 11.58845,5.512693 -0.32151,2.97309 4.62482,8.14371 10.15243,3.52957 0.0985,4.72163 5.69503,5.93061 8.36258,2.73129 0.50798,3.02802 5.73808,7.9346 10.40261,2.51484 2.66411,4.94125 7.29632,4.81487 9.6801,1.99201 0.44288,-0.52446 0.81716,-1.71005 0.86702,-2.13973 0.0243,-0.20927 -12.71586,-2.61845 -18.93122,-3.92819 -2.88773,-0.60852 -36.97132,-12.212644 -35.10754,-12.0156"
       id="path3829"
       inkscape:connector-curvature="0"
       sodipodi:nodetypes="ccccccsssc"
       inkscape:export-filename="/Users/dani/Pasatiempos/python/noch_less/project/path3768.png"
       inkscape:export-xdpi="73"
       inkscape:export-ydpi="73" />
    <path
       style="fill:none;stroke:#2d114c;stroke-width:2.5999999;stroke-linecap:butt;stroke-linejoin:miter;stroke-miterlimit:4;stroke-opacity:1;stroke-dasharray:none"
       d="m 280.61016,94.722235 c 2.63403,0.05436 5.24761,0.149618 8.06509,-0.162931 3.70303,-0.410783 36.73915,14.954946 58.76459,16.225616"
       id="path3825"
       inkscape:connector-curvature="0"
       sodipodi:nodetypes="csc"
       inkscape:export-filename="/Users/dani/Pasatiempos/python/noch_less/project/path3768.png"
       inkscape:export-xdpi="73"
       inkscape:export-ydpi="73" />
    <path
       sodipodi:type="arc"
       style="fill:#7cff00;fill-opacity:1;stroke:none;stroke-width:0.51800835000000001;stroke-linecap:butt;stroke-linejoin:round;stroke-miterlimit:4;stroke-opacity:1;stroke-dasharray:none"
       id="path3831"
       sodipodi:cx="292.63248"
       sodipodi:cy="32.715302"
       sodipodi:rx="4.6083856"
       sodipodi:ry="2.7074265"
       d="m 297.24086,32.715302 a 4.6083856,2.7074265 0 1 1 -9.21677,0 4.6083856,2.7074265 0 1 1 9.21677,0 z"
       transform="matrix(0.893163,0,0,1.0431236,31.058124,-1.5836145)"
       inkscape:export-filename="/Users/dani/Pasatiempos/python/noch_less/project/path3768.png"
       inkscape:export-xdpi="73"
       inkscape:export-ydpi="73" />
    <path
       sodipodi:type="arc"
       style="fill:#7cff00;fill-opacity:1;stroke:none;stroke-width:0.57518142000000005;stroke-linecap:butt;stroke-linejoin:round;stroke-miterlimit:4;stroke-opacity:1;stroke-dasharray:none;display:inline"
       id="path3831-2"
       sodipodi:cx="292.63248"
       sodipodi:cy="32.715302"
       sodipodi:rx="4.6083856"
       sodipodi:ry="2.7074265"
       d="m 297.24086,32.715302 a 4.6083856,2.7074265 0 1 1 -9.21677,0 4.6083856,2.7074265 0 1 1 9.21677,0 z"
       transform="matrix(0.78764693,-0.28080254,0.30346349,0.85121055,33.434339,94.816286)"
       inkscape:export-filename="/Users/dani/Pasatiempos/python/noch_less/project/path3768.png"
       inkscape:export-xdpi="73"
       inkscape:export-ydpi="73" />
    <path
       sodipodi:type="arc"
       style="fill:#7cff00;fill-opacity:1;stroke:none;stroke-width:0.63646608000000005;stroke-linecap:butt;stroke-linejoin:round;stroke-miterlimit:4;stroke-opacity:1;stroke-dasharray:none;display:inline"
       id="path3831-3"
       sodipodi:cx="292.63248"
       sodipodi:cy="32.715302"
       sodipodi:rx="4.6083856"
       sodipodi:ry="2.7074265"
       d="m 297.24086,32.715302 a 4.6083856,2.7074265 0 1 1 -9.21677,0 4.6083856,2.7074265 0 1 1 9.21677,0 z"
       transform="matrix(0.51368173,-0.59666929,0.57704937,0.53114713,93.280253,215.30622)"
       inkscape:export-filename="/Users/dani/Pasatiempos/python/noch_less/project/path3768.png"
       inkscape:export-xdpi="73"
       inkscape:export-ydpi="73" />
  </g>
  <g
     inkscape:groupmode="layer"
     id="layer3"
     inkscape:label="ojos"
     style="display:inline">
    <path
       style="fill:#ffffff;fill-opacity:1;stroke:#2d114c;stroke-width:2.5999999;stroke-linecap:butt;stroke-linejoin:miter;stroke-miterlimit:4;stroke-opacity:1;stroke-dasharray:none"
       d="m 321.7888,51.486206 c 2.76957,3.637466 8.24571,8.965968 15.23404,10.020258 4.30096,-1.961781 8.38717,-3.960332 6.10992,-10.590517 -7.02136,0.774526 -14.54978,0.634802 -21.34396,0.570259 z"
       id="path3944"
       inkscape:connector-curvature="0"
       sodipodi:nodetypes="cccc"
       inkscape:export-filename="/Users/dani/Pasatiempos/python/noch_less/project/path3768.png"
       inkscape:export-xdpi="73"
       inkscape:export-ydpi="73" />
    <path
       style="fill:#ffffff;fill-opacity:1;stroke:#2d114c;stroke-width:2.5999999;stroke-linecap:butt;stroke-linejoin:miter;stroke-miterlimit:4;stroke-opacity:1;stroke-dasharray:none"
       d="m 311.52687,51.091234 c -9.98484,0.628161 -19.96967,1.593087 -29.95451,0.460839 0.6703,3.614994 -2.32388,12.843986 13.59474,13.249109 12.73379,0.32407 16.91469,-7.549165 16.8206,-14.170786"
       id="path3940"
       inkscape:connector-curvature="0"
       sodipodi:nodetypes="ccsc"
       inkscape:export-filename="/Users/dani/Pasatiempos/python/noch_less/project/path3768.png"
       inkscape:export-xdpi="73"
       inkscape:export-ydpi="73" />
    <path
       sodipodi:type="arc"
       style="fill:#ffffff;fill-opacity:1;stroke:#2d114c;stroke-width:2.5999999;stroke-miterlimit:4;stroke-opacity:1;stroke-dasharray:none"
       id="path3949"
       sodipodi:cx="296.20862"
       sodipodi:cy="56.374138"
       sodipodi:rx="1.2219827"
       sodipodi:ry="1.2219827"
       d="m 297.4306,56.374138 a 1.2219827,1.2219827 0 1 1 -2.44396,0 1.2219827,1.2219827 0 1 1 2.44396,0 z"
       transform="translate(1.7922414,0.97758621)"
       inkscape:export-filename="/Users/dani/Pasatiempos/python/noch_less/project/path3768.png"
       inkscape:export-xdpi="73"
       inkscape:export-ydpi="73" />
    <path
       sodipodi:type="arc"
       style="fill:#2d114c;fill-opacity:1;stroke:#2d114c;stroke-width:2.5999999;stroke-miterlimit:4;stroke-opacity:1;stroke-dasharray:none;display:inline"
       id="path3949-4"
       sodipodi:cx="296.20862"
       sodipodi:cy="56.374138"
       sodipodi:rx="1.2219827"
       sodipodi:ry="1.2219827"
       d="m 297.4306,56.374138 a 1.2219827,1.2219827 0 1 1 -2.44396,0 1.2219827,1.2219827 0 1 1 2.44396,0 z"
       transform="matrix(0.80618697,0,0,0.80618697,96.675473,10.518714)"
       inkscape:export-filename="/Users/dani/Pasatiempos/python/noch_less/project/path3768.png"
       inkscape:export-xdpi="73"
       inkscape:export-ydpi="73" />
    <path
       style="fill:none;stroke:#2d114c;stroke-width:2.5999999;stroke-linecap:butt;stroke-linejoin:miter;stroke-miterlimit:4;stroke-opacity:1;stroke-dasharray:none"
       d="m 310.48997,51.609683 c 5.52506,-2.143426 4.27544,-7.296845 1.0945,-8.352699"
       id="path3768"
       inkscape:connector-curvature="0"
       sodipodi:nodetypes="cc"
       inkscape:export-xdpi="73"
       inkscape:export-ydpi="73" />
  </g>
  <g
     inkscape:groupmode="layer"
     id="layer5"
     inkscape:label="arco"
     style="opacity:0.2519685;display:none">
    <path
       sodipodi:type="arc"
       style="fill:none;stroke:#7cff00;stroke-width:11.65803146;stroke-miterlimit:4;stroke-opacity:1;stroke-dasharray:none"
       id="path3865"
       sodipodi:cx="301.84924"
       sodipodi:cy="58.464657"
       sodipodi:rx="103.68867"
       sodipodi:ry="100.67651"
       d="m 405.53791,58.464657 a 103.68867,100.67651 0 1 1 -207.37733,0 103.68867,100.67651 0 1 1 207.37733,0 z"
       transform="matrix(0.78852489,0,0,0.81859023,66.829053,19.533649)" />
  </g>
</svg>
